<?xml version="1.0" encoding="UTF-8"?>
<!DOCTYPE svg PUBLIC "-//W3C//DTD SVG 1.1//EN" "http://www.w3.org/Graphics/SVG/1.1/DTD/svg11.dtd">
<svg xmlns="http://www.w3.org/2000/svg" version="1.1" width="999px" height="504px" style="shape-rendering:geometricPrecision; text-rendering:geometricPrecision; image-rendering:optimizeQuality; fill-rule:evenodd; clip-rule:evenodd" xmlns:xlink="http://www.w3.org/1999/xlink">
<g><path style="opacity:0.968" fill="#ec1c23" d="M 225.5,49.5 C 226.665,91.998 226.831,134.665 226,177.5C 221.922,181.984 218.589,186.984 216,192.5C 211.634,203.26 208.3,214.26 206,225.5C 199.865,218.364 193.365,211.531 186.5,205C 183.358,202.096 179.691,200.262 175.5,199.5C 175.826,215.973 179.826,231.473 187.5,246C 186.5,246.667 185.5,246.667 184.5,246C 173.108,238.98 160.775,234.98 147.5,234C 154.942,248.774 165.275,261.107 178.5,271C 174.854,271.114 171.188,270.947 167.5,270.5C 160.723,270.785 154.056,271.619 147.5,273C 169.908,294.524 196.241,301.69 226.5,294.5C 225.532,331.48 225.198,368.48 225.5,405.5C 222.167,405.5 218.833,405.5 215.5,405.5C 217.046,374.78 218.213,344.113 219,313.5C 215.319,310.64 211.152,309.807 206.5,311C 185.414,314.737 164.414,318.903 143.5,323.5C 142.833,323.167 142.167,322.833 141.5,322.5C 143.716,315.734 146.216,309.067 149,302.5C 149.854,298.375 149.52,294.375 148,290.5C 145.5,288 143,285.5 140.5,283C 116.026,265.36 91.6929,247.526 67.5,229.5C 68.7786,227.854 70.4453,226.687 72.5,226C 81.1985,225.501 87.1985,221.334 90.5,213.5C 85.1,197.633 80.1,181.633 75.5,165.5C 76.5,165.167 77.5,164.833 78.5,164.5C 88.8333,166.333 99.1667,168.167 109.5,170C 113.5,170.667 117.5,170.667 121.5,170C 123.624,168.878 125.457,167.378 127,165.5C 129.393,160.322 131.393,154.988 133,149.5C 133.388,148.572 134.055,147.905 135,147.5C 147.43,161.27 159.93,175.103 172.5,189C 175.551,189.857 178.217,189.19 180.5,187C 175.035,157.173 169.368,127.34 163.5,97.5C 163.833,96.5 164.167,95.5 164.5,94.5C 171.829,99.8334 179.496,104.667 187.5,109C 190.634,109.79 193.634,109.457 196.5,108C 198.043,106.122 199.876,104.622 202,103.5C 209.57,85.3617 217.404,67.3617 225.5,49.5 Z"/></g>
<g><path style="opacity:0.887" fill="#ec1c23" d="M 288.5,51.5 C 298.192,50.4211 307.359,52.0878 316,56.5C 318.425,54.5478 320.925,52.8812 323.5,51.5C 324.078,60.5094 324.745,69.5094 325.5,78.5C 324.325,78.719 323.325,78.3857 322.5,77.5C 314.758,56.6481 301.091,51.4814 281.5,62C 273.881,70.8513 270.215,81.1846 270.5,93C 272.139,120.793 286.139,130.793 312.5,123C 317.333,119.5 321.5,115.333 325,110.5C 325.87,111.108 326.37,111.941 326.5,113C 317.921,128.953 304.588,135.287 286.5,132C 266.928,126.58 256.928,113.58 256.5,93C 257.311,71.377 267.978,57.5436 288.5,51.5 Z"/></g>
<g><path style="opacity:0.901" fill="#ec1c23" d="M 374.5,51.5 C 377.434,52.2894 379.268,54.2894 380,57.5C 388.944,79.6634 398.277,101.663 408,123.5C 410.408,126.62 413.574,127.953 417.5,127.5C 417.5,128.5 417.5,129.5 417.5,130.5C 406.833,130.5 396.167,130.5 385.5,130.5C 385.5,129.5 385.5,128.5 385.5,127.5C 389.651,128.267 392.317,126.767 393.5,123C 391.799,117.399 389.799,111.899 387.5,106.5C 377.5,105.167 367.5,105.167 357.5,106.5C 355.029,111.942 352.696,117.442 350.5,123C 352.361,126.597 355.361,128.097 359.5,127.5C 359.5,128.5 359.5,129.5 359.5,130.5C 351.167,130.5 342.833,130.5 334.5,130.5C 334.5,129.5 334.5,128.5 334.5,127.5C 337.505,127.747 340.005,126.747 342,124.5C 353.131,100.262 363.965,75.9291 374.5,51.5 Z M 372.5,71.5 C 376.67,80.6504 380.67,89.9838 384.5,99.5C 376.528,100.498 368.528,100.831 360.5,100.5C 364.22,90.7252 368.22,81.0586 372.5,71.5 Z"/></g>
<g><path style="opacity:0.901" fill="#ec1c23" d="M 548.5,51.5 C 551.48,51.2411 553.313,52.5744 554,55.5C 563.116,78.3983 572.782,101.065 583,123.5C 585.408,126.62 588.574,127.953 592.5,127.5C 592.5,128.5 592.5,129.5 592.5,130.5C 581.833,130.5 571.167,130.5 560.5,130.5C 560.5,129.5 560.5,128.5 560.5,127.5C 564.367,128.225 567.034,126.892 568.5,123.5C 566.482,117.474 564.482,111.474 562.5,105.5C 552.494,105.334 542.494,105.5 532.5,106C 529.623,111.423 527.29,117.09 525.5,123C 527.119,126.966 530.119,128.466 534.5,127.5C 534.5,128.5 534.5,129.5 534.5,130.5C 526.167,130.5 517.833,130.5 509.5,130.5C 509.5,129.5 509.5,128.5 509.5,127.5C 513.433,127.589 516.266,125.922 518,122.5C 528.736,99.0335 538.903,75.3668 548.5,51.5 Z M 546.5,72.5 C 547.75,72.5774 548.583,73.244 549,74.5C 552.402,82.874 555.902,91.2073 559.5,99.5C 551.187,100.665 542.853,100.832 534.5,100C 539.182,91.1157 543.182,81.949 546.5,72.5 Z"/></g>
<g><path style="opacity:0.9" fill="#ec1c23" d="M 765.5,51.5 C 768.48,51.2411 770.313,52.5744 771,55.5C 780.116,78.3983 789.782,101.065 800,123.5C 802.408,126.62 805.574,127.953 809.5,127.5C 809.5,128.5 809.5,129.5 809.5,130.5C 798.833,130.5 788.167,130.5 777.5,130.5C 777.5,129.5 777.5,128.5 777.5,127.5C 781.367,128.225 784.034,126.892 785.5,123.5C 783.892,117.617 781.725,111.951 779,106.5C 769,105.167 759,105.167 749,106.5C 746.418,111.832 744.251,117.332 742.5,123C 744.119,126.966 747.119,128.466 751.5,127.5C 751.5,128.5 751.5,129.5 751.5,130.5C 743.167,130.5 734.833,130.5 726.5,130.5C 726.5,129.5 726.5,128.5 726.5,127.5C 730.175,127.246 733.009,125.58 735,122.5C 745.736,99.0335 755.903,75.3668 765.5,51.5 Z M 763.5,72.5 C 764.75,72.5774 765.583,73.244 766,74.5C 769.402,82.874 772.902,91.2073 776.5,99.5C 768.187,100.665 759.853,100.832 751.5,100C 756.182,91.1157 760.182,81.949 763.5,72.5 Z"/></g>
<g><path style="opacity:0.89" fill="#ec1c23" d="M 419.5,53.5 C 427.196,53.1692 434.862,53.5025 442.5,54.5C 457.522,72.3544 472.355,90.3544 487,108.5C 487.667,92.5 487.667,76.5 487,60.5C 486.5,58.6667 485.333,57.5 483.5,57C 481.19,56.5034 478.857,56.3367 476.5,56.5C 476.5,55.5 476.5,54.5 476.5,53.5C 485.833,53.5 495.167,53.5 504.5,53.5C 504.5,54.5 504.5,55.5 504.5,56.5C 501.07,56.1065 497.904,56.7732 495,58.5C 494.667,59.5 494.333,60.5 494,61.5C 493.5,85.1643 493.333,108.831 493.5,132.5C 491.097,132.607 489.264,131.607 488,129.5C 472.333,110.167 456.667,90.8333 441,71.5C 440.333,88.5 440.333,105.5 441,122.5C 441.11,124.848 442.277,126.348 444.5,127C 446.81,127.497 449.143,127.663 451.5,127.5C 451.5,128.5 451.5,129.5 451.5,130.5C 442.167,130.5 432.833,130.5 423.5,130.5C 423.5,129.5 423.5,128.5 423.5,127.5C 425.857,127.663 428.19,127.497 430.5,127C 432.333,126.5 433.5,125.333 434,123.5C 434.667,103.5 434.667,83.5 434,63.5C 430.377,58.6051 425.544,56.2717 419.5,56.5C 419.5,55.5 419.5,54.5 419.5,53.5 Z"/></g>
<g><path style="opacity:0.922" fill="#ec1c23" d="M 597.5,53.5 C 613.503,53.3334 629.503,53.5001 645.5,54C 665.813,58.0748 676.147,70.5748 676.5,91.5C 676.056,112.914 665.389,125.747 644.5,130C 628.837,130.5 613.17,130.667 597.5,130.5C 597.5,129.5 597.5,128.5 597.5,127.5C 599.857,127.663 602.19,127.497 604.5,127C 606.333,126.5 607.5,125.333 608,123.5C 608.667,102.5 608.667,81.5 608,60.5C 607.535,59.0692 606.701,57.9025 605.5,57C 602.854,56.5026 600.187,56.3359 597.5,56.5C 597.5,55.5 597.5,54.5 597.5,53.5 Z M 625.5,58.5 C 649.018,57.2654 661.351,68.4321 662.5,92C 660.243,117.965 646.243,128.799 620.5,124.5C 620.5,102.833 620.5,81.1667 620.5,59.5C 622.415,59.7845 624.081,59.4511 625.5,58.5 Z"/></g>
<g><path style="opacity:0.926" fill="#ec1c23" d="M 686.5,53.5 C 697.5,53.5 708.5,53.5 719.5,53.5C 719.5,54.5 719.5,55.5 719.5,56.5C 715.713,55.8144 712.546,56.8144 710,59.5C 708.893,70.4534 708.393,81.4534 708.5,92.5C 708.381,103.222 708.881,113.889 710,124.5C 712.546,127.186 715.713,128.186 719.5,127.5C 719.5,128.5 719.5,129.5 719.5,130.5C 708.5,130.5 697.5,130.5 686.5,130.5C 686.5,129.5 686.5,128.5 686.5,127.5C 690.287,128.186 693.454,127.186 696,124.5C 696.667,102.833 696.667,81.1667 696,59.5C 693.358,56.9712 690.192,55.9712 686.5,56.5C 686.5,55.5 686.5,54.5 686.5,53.5 Z"/></g>
<g><path style="opacity:0.898" fill="#ec1c23" d="M 811.5,53.5 C 818.841,53.3337 826.174,53.5003 833.5,54C 848.786,72.0742 863.952,90.2409 879,108.5C 879.667,92.8333 879.667,77.1667 879,61.5C 878.89,59.1517 877.723,57.6517 875.5,57C 873.19,56.5034 870.857,56.3367 868.5,56.5C 868.5,55.5 868.5,54.5 868.5,53.5C 877.833,53.5 887.167,53.5 896.5,53.5C 896.5,54.5 896.5,55.5 896.5,56.5C 893.813,56.3359 891.146,56.5026 888.5,57C 887.299,57.9025 886.465,59.0692 886,60.5C 885.5,84.4977 885.333,108.498 885.5,132.5C 882.737,132.256 880.571,130.923 879,128.5C 863.667,109.833 848.333,91.1667 833,72.5C 832.333,89.5 832.333,106.5 833,123.5C 833.465,124.931 834.299,126.097 835.5,127C 838.146,127.497 840.813,127.664 843.5,127.5C 843.5,128.5 843.5,129.5 843.5,130.5C 834.167,130.5 824.833,130.5 815.5,130.5C 815.5,129.5 815.5,128.5 815.5,127.5C 818.93,127.893 822.096,127.227 825,125.5C 825.333,124.5 825.667,123.5 826,122.5C 826.667,102.833 826.667,83.1667 826,63.5C 822.377,58.6051 817.544,56.2717 811.5,56.5C 811.5,55.5 811.5,54.5 811.5,53.5 Z"/></g>
<g><path style="opacity:0.881" fill="#ec1c23" d="M 683.5,167.5 C 690.39,167.678 697.057,169.011 703.5,171.5C 705.569,171.215 706.902,170.048 707.5,168C 708.448,167.517 709.448,167.351 710.5,167.5C 710.5,176.167 710.5,184.833 710.5,193.5C 709.167,193.5 707.833,193.5 706.5,193.5C 705.304,178.725 697.304,172.225 682.5,174C 673.588,179.823 673.255,186.157 681.5,193C 691.418,198.206 700.918,204.04 710,210.5C 718.624,224.881 715.458,235.714 700.5,243C 697.402,243.918 694.235,244.418 691,244.5C 684.829,243.957 678.829,242.624 673,240.5C 671.011,242.181 668.844,243.514 666.5,244.5C 666.5,235.833 666.5,227.167 666.5,218.5C 667.5,218.5 668.5,218.5 669.5,218.5C 671.256,232.762 679.256,239.596 693.5,239C 703.24,236.356 706.073,230.523 702,221.5C 692.926,214.711 683.426,208.544 673.5,203C 662.618,192.033 662.951,181.366 674.5,171C 677.571,169.704 680.571,168.538 683.5,167.5 Z"/></g>
<g><path style="opacity:0.893" fill="#ec1c23" d="M 255.5,169.5 C 266.167,169.5 276.833,169.5 287.5,169.5C 287.5,170.5 287.5,171.5 287.5,172.5C 281.622,171.509 278.122,173.843 277,179.5C 276.333,192.5 276.333,205.5 277,218.5C 278.387,235.956 287.554,242.123 304.5,237C 310.767,235.066 314.601,230.9 316,224.5C 317.863,208.155 317.863,191.821 316,175.5C 313.358,172.971 310.192,171.971 306.5,172.5C 306.5,171.5 306.5,170.5 306.5,169.5C 321.504,169.333 336.504,169.5 351.5,170C 366.025,186.89 380.191,204.057 394,221.5C 394.667,206.5 394.667,191.5 394,176.5C 391.85,173.037 388.684,171.704 384.5,172.5C 384.5,171.5 384.5,170.5 384.5,169.5C 393.167,169.5 401.833,169.5 410.5,169.5C 410.5,170.5 410.5,171.5 410.5,172.5C 406.316,171.704 403.15,173.037 401,176.5C 400.5,199.164 400.333,221.831 400.5,244.5C 398.097,244.607 396.264,243.607 395,241.5C 380.333,223.5 365.667,205.5 351,187.5C 350.333,203.167 350.333,218.833 351,234.5C 351.11,236.848 352.277,238.348 354.5,239C 356.81,239.497 359.143,239.663 361.5,239.5C 361.5,240.5 361.5,241.5 361.5,242.5C 352.5,242.5 343.5,242.5 334.5,242.5C 334.5,241.5 334.5,240.5 334.5,239.5C 338.287,240.186 341.454,239.186 344,236.5C 344.667,217.167 344.667,197.833 344,178.5C 338.045,172.007 331.378,171.007 324,175.5C 322.727,191.78 322.06,208.114 322,224.5C 318.253,238.727 308.92,245.393 294,244.5C 278.123,245.274 268.79,237.94 266,222.5C 265.667,207.5 265.333,192.5 265,177.5C 263.436,173.131 260.27,171.465 255.5,172.5C 255.5,171.5 255.5,170.5 255.5,169.5 Z"/></g>
<g><path style="opacity:0.927" fill="#ec1c23" d="M 412.5,169.5 C 423.167,169.5 433.833,169.5 444.5,169.5C 444.5,170.5 444.5,171.5 444.5,172.5C 440.808,171.971 437.642,172.971 435,175.5C 433.014,195.837 433.014,216.171 435,236.5C 437.546,239.186 440.713,240.186 444.5,239.5C 444.5,240.5 444.5,241.5 444.5,242.5C 433.833,242.5 423.167,242.5 412.5,242.5C 412.5,241.5 412.5,240.5 412.5,239.5C 416.287,240.186 419.454,239.186 422,236.5C 422.667,216.167 422.667,195.833 422,175.5C 419.358,172.971 416.192,171.971 412.5,172.5C 412.5,171.5 412.5,170.5 412.5,169.5 Z"/></g>
<g><path style="opacity:0.883" fill="#ec1c23" d="M 445.5,169.5 C 455.833,169.5 466.167,169.5 476.5,169.5C 476.5,170.5 476.5,171.5 476.5,172.5C 470.003,171.675 467.503,174.342 469,180.5C 475.022,195.409 481.522,210.076 488.5,224.5C 495.419,209.078 501.752,193.411 507.5,177.5C 506.114,174.013 503.448,172.347 499.5,172.5C 499.5,171.5 499.5,170.5 499.5,169.5C 507.5,169.5 515.5,169.5 523.5,169.5C 523.5,170.5 523.5,171.5 523.5,172.5C 519.862,172.738 517.029,174.404 515,177.5C 505.61,199.005 496.61,220.671 488,242.5C 485.211,245.129 483.211,244.462 482,240.5C 473.056,219.001 463.722,197.668 454,176.5C 451.772,173.922 448.939,172.589 445.5,172.5C 445.5,171.5 445.5,170.5 445.5,169.5 Z"/></g>
<g><path style="opacity:0.884" fill="#ec1c23" d="M 524.5,169.5 C 543.5,169.5 562.5,169.5 581.5,169.5C 581.5,175.167 581.5,180.833 581.5,186.5C 580.5,186.5 579.5,186.5 578.5,186.5C 578.324,181.309 575.991,177.476 571.5,175C 563.173,174.5 554.84,174.334 546.5,174.5C 546.5,183.833 546.5,193.167 546.5,202.5C 553.555,202.73 560.555,202.23 567.5,201C 570.62,198.592 571.953,195.426 571.5,191.5C 572.5,191.5 573.5,191.5 574.5,191.5C 574.5,200.167 574.5,208.833 574.5,217.5C 573.5,217.5 572.5,217.5 571.5,217.5C 571.953,213.574 570.62,210.408 567.5,208C 560.563,206.712 553.563,206.212 546.5,206.5C 546.334,216.506 546.5,226.506 547,236.5C 556.165,237.931 565.332,237.765 574.5,236C 578.771,232.07 582.604,227.903 586,223.5C 586.5,223.833 587,224.167 587.5,224.5C 585.5,230.167 583.5,235.833 581.5,241.5C 562.512,242.5 543.512,242.833 524.5,242.5C 524.5,241.5 524.5,240.5 524.5,239.5C 528.192,240.029 531.358,239.029 534,236.5C 534.667,216.167 534.667,195.833 534,175.5C 531.358,172.971 528.192,171.971 524.5,172.5C 524.5,171.5 524.5,170.5 524.5,169.5 Z"/></g>
<g><path style="opacity:0.896" fill="#ec1c23" d="M 589.5,169.5 C 602.504,169.333 615.504,169.5 628.5,170C 642.535,172.362 648.368,180.528 646,194.5C 644.93,197.242 643.43,199.742 641.5,202C 637.765,204.195 634.099,206.362 630.5,208.5C 636.894,218.116 643.894,227.283 651.5,236C 654.893,238.076 658.56,239.242 662.5,239.5C 662.5,240.5 662.5,241.5 662.5,242.5C 655.492,242.666 648.492,242.5 641.5,242C 633.711,231.589 626.044,221.089 618.5,210.5C 616.257,209.526 613.924,209.192 611.5,209.5C 611.334,218.506 611.5,227.506 612,236.5C 614.546,239.186 617.713,240.186 621.5,239.5C 621.5,240.5 621.5,241.5 621.5,242.5C 610.833,242.5 600.167,242.5 589.5,242.5C 589.5,241.5 589.5,240.5 589.5,239.5C 593.287,240.186 596.454,239.186 599,236.5C 599.667,216.167 599.667,195.833 599,175.5C 596.358,172.971 593.192,171.971 589.5,172.5C 589.5,171.5 589.5,170.5 589.5,169.5 Z M 614.5,174.5 C 628.003,173.835 634.169,180.168 633,193.5C 628.44,202.031 621.274,205.698 611.5,204.5C 611.5,194.833 611.5,185.167 611.5,175.5C 612.791,175.737 613.791,175.404 614.5,174.5 Z"/></g>
<g><path style="opacity:0.93" fill="#ec1c23" d="M 721.5,169.5 C 732.167,169.5 742.833,169.5 753.5,169.5C 753.5,170.5 753.5,171.5 753.5,172.5C 749.808,171.971 746.642,172.971 744,175.5C 742.883,185.778 742.383,196.111 742.5,206.5C 742.525,216.192 742.858,225.859 743.5,235.5C 745.772,239.092 749.106,240.425 753.5,239.5C 753.5,240.5 753.5,241.5 753.5,242.5C 742.833,242.5 732.167,242.5 721.5,242.5C 721.5,241.5 721.5,240.5 721.5,239.5C 725.684,240.296 728.85,238.963 731,235.5C 731.667,215.833 731.667,196.167 731,176.5C 728.85,173.037 725.684,171.704 721.5,172.5C 721.5,171.5 721.5,170.5 721.5,169.5 Z"/></g>
<g><path style="opacity:0.884" fill="#ec1c23" d="M 757.5,169.5 C 777.5,169.5 797.5,169.5 817.5,169.5C 817.966,175.491 818.299,181.491 818.5,187.5C 817.325,187.719 816.325,187.386 815.5,186.5C 815.015,182.695 813.348,179.529 810.5,177C 805.01,175.111 799.343,174.278 793.5,174.5C 793.333,195.169 793.5,215.836 794,236.5C 794.5,237.667 795.333,238.5 796.5,239C 798.81,239.497 801.143,239.663 803.5,239.5C 803.5,240.5 803.5,241.5 803.5,242.5C 792.833,242.5 782.167,242.5 771.5,242.5C 771.5,241.5 771.5,240.5 771.5,239.5C 775.287,240.186 778.454,239.186 781,236.5C 781.5,215.836 781.667,195.169 781.5,174.5C 775.68,174.45 770.014,175.284 764.5,177C 761.652,179.529 759.985,182.695 759.5,186.5C 758.675,187.386 757.675,187.719 756.5,187.5C 756.966,181.509 757.299,175.509 757.5,169.5 Z"/></g>
<g><path style="opacity:0.887" fill="#ec1c23" d="M 820.5,169.5 C 830.833,169.5 841.167,169.5 851.5,169.5C 851.5,170.5 851.5,171.5 851.5,172.5C 847.776,171.773 845.109,173.106 843.5,176.5C 848.817,186.466 854.651,196.133 861,205.5C 867.084,196.335 872.917,187.002 878.5,177.5C 877.37,173.369 874.703,171.702 870.5,172.5C 870.5,171.5 870.5,170.5 870.5,169.5C 879.5,169.5 888.5,169.5 897.5,169.5C 897.5,170.5 897.5,171.5 897.5,172.5C 891.748,172.963 887.248,175.629 884,180.5C 877.667,190.5 871.333,200.5 865,210.5C 864.333,219.167 864.333,227.833 865,236.5C 867.546,239.186 870.713,240.186 874.5,239.5C 874.5,240.5 874.5,241.5 874.5,242.5C 863.833,242.5 853.167,242.5 842.5,242.5C 842.5,241.5 842.5,240.5 842.5,239.5C 846.287,240.186 849.454,239.186 852,236.5C 852.667,228.167 852.667,219.833 852,211.5C 844.333,199.833 836.667,188.167 829,176.5C 826.603,174.218 823.769,172.884 820.5,172.5C 820.5,171.5 820.5,170.5 820.5,169.5 Z"/></g>
<g><path style="opacity:0.884" fill="#006f3c" d="M 275.5,273.5 C 293.289,274.457 301.122,283.79 299,301.5C 294.557,314.674 285.39,319.841 271.5,317C 257.912,312.337 252.745,302.837 256,288.5C 259.529,279.454 266.029,274.454 275.5,273.5 Z M 273.5,277.5 C 280.778,276.272 285.278,279.272 287,286.5C 287.884,293.582 287.551,300.582 286,307.5C 282.511,314.754 277.511,316.087 271,311.5C 269.725,309.283 268.725,306.949 268,304.5C 267.333,298.5 267.333,292.5 268,286.5C 268.837,282.843 270.67,279.843 273.5,277.5 Z"/></g>
<g><path style="opacity:0.863" fill="#006f3c" d="M 437.5,273.5 C 438.496,273.414 439.329,273.748 440,274.5C 445.139,286.916 450.472,299.249 456,311.5C 457.351,313.019 458.851,314.352 460.5,315.5C 453.5,316.833 446.5,316.833 439.5,315.5C 441.51,314.935 443.176,313.935 444.5,312.5C 443.695,310.085 442.695,307.751 441.5,305.5C 436.88,304.507 432.214,304.173 427.5,304.5C 427.134,306.905 426.467,309.238 425.5,311.5C 426.551,313.532 428.217,314.865 430.5,315.5C 425.833,316.833 421.167,316.833 416.5,315.5C 418.149,314.352 419.649,313.019 421,311.5C 426.787,298.929 432.287,286.262 437.5,273.5 Z M 434.5,290.5 C 436.531,293.554 438.198,296.887 439.5,300.5C 436.216,301.657 432.882,301.824 429.5,301C 431.459,297.616 433.125,294.116 434.5,290.5 Z"/></g>
<g><path style="opacity:0.85" fill="#006f3c" d="M 549.5,273.5 C 555.269,273.085 560.769,274.085 566,276.5C 567.626,275.711 569.126,274.711 570.5,273.5C 571.833,278.833 571.833,284.167 570.5,289.5C 568.389,286.792 566.389,283.959 564.5,281C 557.514,275.926 551.014,276.426 545,282.5C 540.333,291.5 540.333,300.5 545,309.5C 549.354,314.007 554.521,315.341 560.5,313.5C 560.665,309.818 560.499,306.152 560,302.5C 558.693,301.228 557.193,300.228 555.5,299.5C 562.5,298.167 569.5,298.167 576.5,299.5C 574.807,300.228 573.307,301.228 572,302.5C 571.501,306.486 571.334,310.486 571.5,314.5C 563.71,317.176 555.71,318.009 547.5,317C 533.111,312.728 527.611,303.228 531,288.5C 534.401,279.919 540.568,274.919 549.5,273.5 Z"/></g>
<g><path style="opacity:0.859" fill="#006f3c" d="M 661.5,273.5 C 662.75,273.577 663.583,274.244 664,275.5C 669.118,288.403 674.784,301.07 681,313.5C 682.205,314.071 683.372,314.738 684.5,315.5C 677.5,316.833 670.5,316.833 663.5,315.5C 665.274,314.813 666.941,313.98 668.5,313C 667.071,310.31 666.071,307.477 665.5,304.5C 660.786,304.173 656.12,304.507 651.5,305.5C 648.009,310.451 649.009,313.785 654.5,315.5C 649.5,316.833 644.5,316.833 639.5,315.5C 640.914,314.376 642.414,313.376 644,312.5C 649.937,299.512 655.77,286.512 661.5,273.5 Z M 657.5,290.5 C 660.119,293.562 662.119,297.062 663.5,301C 660.118,301.824 656.784,301.657 653.5,300.5C 655.4,297.371 656.733,294.037 657.5,290.5 Z"/></g>
<g><path style="opacity:0.842" fill="#006f3c" d="M 816.5,273.5 C 821.727,273.467 826.727,274.467 831.5,276.5C 831.281,275.325 831.614,274.325 832.5,273.5C 833.605,278.445 834.272,283.445 834.5,288.5C 833.5,288.5 832.5,288.5 831.5,288.5C 829.807,278.658 824.474,275.658 815.5,279.5C 814.224,281.861 814.558,284.028 816.5,286C 822.582,289.123 828.415,292.623 834,296.5C 838.925,306.138 836.425,312.971 826.5,317C 821.368,317.82 816.368,317.32 811.5,315.5C 809.944,316.547 808.277,317.214 806.5,317.5C 806.172,312.125 806.505,306.792 807.5,301.5C 809.306,304.431 811.139,307.431 813,310.5C 817.272,314.559 821.939,315.225 827,312.5C 829.035,308.698 828.202,305.531 824.5,303C 817.788,300.742 812.288,296.909 808,291.5C 805.213,282.744 808.046,276.744 816.5,273.5 Z"/></g>
<g><path style="opacity:0.858" fill="#006f3c" d="M 302.5,274.5 C 314.5,274.5 326.5,274.5 338.5,274.5C 338.5,278.833 338.5,283.167 338.5,287.5C 337.5,287.5 336.5,287.5 335.5,287.5C 335.747,284.495 334.747,281.995 332.5,280C 328.3,278.633 323.967,278.133 319.5,278.5C 319.5,283.5 319.5,288.5 319.5,293.5C 321.655,293.628 323.655,293.128 325.5,292C 326.565,289.594 327.898,287.427 329.5,285.5C 330.833,292.5 330.833,299.5 329.5,306.5C 328.074,304.063 326.741,301.563 325.5,299C 323.655,297.872 321.655,297.372 319.5,297.5C 319.334,302.844 319.501,308.177 320,313.5C 321.509,314.09 323.009,314.756 324.5,315.5C 317.167,316.833 309.833,316.833 302.5,315.5C 304.567,314.866 306.4,313.866 308,312.5C 308.667,301.5 308.667,290.5 308,279.5C 306.11,277.746 304.277,276.08 302.5,274.5 Z"/></g>
<g><path style="opacity:0.906" fill="#006f3c" d="M 364.5,274.5 C 373.506,274.334 382.506,274.5 391.5,275C 399.361,276.195 402.528,280.695 401,288.5C 399.749,291.381 397.583,293.214 394.5,294C 404.729,298.949 406.062,305.615 398.5,314C 396.608,314.973 394.608,315.64 392.5,316C 383.149,316.832 373.816,316.665 364.5,315.5C 367.079,315.085 368.913,313.752 370,311.5C 370.667,300.833 370.667,290.167 370,279.5C 368.11,277.746 366.277,276.08 364.5,274.5 Z M 380.5,277.5 C 386.136,277.315 389.469,279.982 390.5,285.5C 389.386,290.281 386.386,292.947 381.5,293.5C 380.505,288.208 380.172,282.875 380.5,277.5 Z M 380.5,296.5 C 390.04,296.908 393.04,301.575 389.5,310.5C 386.802,313.595 383.968,313.928 381,311.5C 380.501,306.511 380.334,301.511 380.5,296.5 Z"/></g>
<g><path style="opacity:0.848" fill="#006f3c" d="M 472.5,274.5 C 477.844,274.334 483.177,274.501 488.5,275C 494.546,282.924 500.713,290.757 507,298.5C 507.667,292.5 507.667,286.5 507,280.5C 505.723,278.269 503.889,276.602 501.5,275.5C 506.167,274.167 510.833,274.167 515.5,275.5C 513.677,276.491 512.177,277.824 511,279.5C 510.5,292.162 510.333,304.829 510.5,317.5C 507.956,316.532 505.789,314.865 504,312.5C 496.667,303.167 489.333,293.833 482,284.5C 481.333,293.5 481.333,302.5 482,311.5C 483.623,313.628 485.789,314.961 488.5,315.5C 483.167,316.833 477.833,316.833 472.5,315.5C 475.079,315.085 476.913,313.752 478,311.5C 478.667,300.833 478.667,290.167 478,279.5C 475.736,278.149 473.902,276.483 472.5,274.5 Z"/></g>
<g><path style="opacity:0.88" fill="#006f3c" d="M 588.5,274.5 C 595.863,274.169 603.197,274.503 610.5,275.5C 608.433,276.134 606.6,277.134 605,278.5C 604.333,289.5 604.333,300.5 605,311.5C 609.296,313.928 613.796,314.094 618.5,312C 621.635,308.875 624.135,305.375 626,301.5C 626.5,301.667 627,301.833 627.5,302C 626.508,306.749 625.842,311.582 625.5,316.5C 613.149,316.832 600.815,316.499 588.5,315.5C 589.991,314.756 591.491,314.09 593,313.5C 593.667,301.833 593.667,290.167 593,278.5C 591.141,277.421 589.641,276.088 588.5,274.5 Z"/></g>
<g><path style="opacity:0.885" fill="#006f3c" d="M 695.5,274.5 C 703.84,274.334 712.173,274.5 720.5,275C 734.145,277.999 739.978,286.499 738,300.5C 736.167,309 731,314.167 722.5,316C 713.482,316.832 704.482,316.665 695.5,315.5C 697.341,314.77 699.175,314.103 701,313.5C 701.667,301.833 701.667,290.167 701,278.5C 698.869,277.385 697.035,276.052 695.5,274.5 Z M 712.5,277.5 C 719.926,278.087 724.426,282.087 726,289.5C 727.011,296.024 726.345,302.357 724,308.5C 721.162,312.444 717.495,313.777 713,312.5C 712.5,300.838 712.333,289.171 712.5,277.5 Z"/></g>
<g><path style="opacity:0.869" fill="#006f3c" d="M 752.5,274.5 C 764.167,274.5 775.833,274.5 787.5,274.5C 787.826,278.884 787.492,283.217 786.5,287.5C 783.581,279.538 777.914,276.538 769.5,278.5C 769.5,283.5 769.5,288.5 769.5,293.5C 774.499,292.226 777.165,288.893 777.5,283.5C 778.833,291.167 778.833,298.833 777.5,306.5C 776.611,303.721 775.444,301.055 774,298.5C 772.644,297.62 771.144,297.286 769.5,297.5C 769.195,302.762 769.529,307.928 770.5,313C 779.742,314.713 786.076,311.213 789.5,302.5C 790.249,306.803 790.082,311.136 789,315.5C 776.896,316.821 764.729,316.821 752.5,315.5C 755.079,315.085 756.913,313.752 758,311.5C 758.667,300.833 758.667,290.167 758,279.5C 756.11,277.746 754.277,276.08 752.5,274.5 Z"/></g>
<g><path style="opacity:0.881" fill="#006f3c" d="M 850.5,274.5 C 858.196,274.169 865.862,274.503 873.5,275.5C 871.433,276.134 869.6,277.134 868,278.5C 867.501,283.489 867.334,288.489 867.5,293.5C 871.833,293.5 876.167,293.5 880.5,293.5C 880.666,288.489 880.499,283.489 880,278.5C 878.4,277.134 876.567,276.134 874.5,275.5C 882.167,274.167 889.833,274.167 897.5,275.5C 895.433,276.134 893.6,277.134 892,278.5C 891.333,289.833 891.333,301.167 892,312.5C 893.6,313.866 895.433,314.866 897.5,315.5C 889.833,316.833 882.167,316.833 874.5,315.5C 876.567,314.866 878.4,313.866 880,312.5C 880.499,307.177 880.666,301.844 880.5,296.5C 876.167,296.5 871.833,296.5 867.5,296.5C 867.334,302.176 867.501,307.843 868,313.5C 869.825,314.103 871.659,314.77 873.5,315.5C 865.833,316.833 858.167,316.833 850.5,315.5C 852.567,314.866 854.4,313.866 856,312.5C 856.667,301.167 856.667,289.833 856,278.5C 853.869,277.385 852.035,276.052 850.5,274.5 Z"/></g>
<g><path style="opacity:0.625" fill="#000000" d="M 259.5,335.5 C 472.167,335.5 684.833,335.5 897.5,335.5C 897.5,336.833 897.5,338.167 897.5,339.5C 684.833,339.5 472.167,339.5 259.5,339.5C 259.5,338.167 259.5,336.833 259.5,335.5 Z"/></g>
<g><path style="opacity:0.758" fill="#000000" d="M 565.5,360.5 C 566.833,360.5 568.167,360.5 569.5,360.5C 567.529,371.858 565.362,383.191 563,394.5C 561.989,395.337 560.822,395.67 559.5,395.5C 561.242,383.792 563.242,372.125 565.5,360.5 Z"/></g>
<g><path style="opacity:0.779" fill="#000000" d="M 626.5,360.5 C 627.978,360.238 629.311,360.571 630.5,361.5C 627.654,372.728 625.321,384.062 623.5,395.5C 621.549,395.773 620.049,395.107 619,393.5C 615.744,395.429 612.244,395.929 608.5,395C 604.015,387.051 605.015,379.718 611.5,373C 615.748,371.236 620.081,371.069 624.5,372.5C 624.782,368.426 625.448,364.426 626.5,360.5 Z M 615.5,374.5 C 619.407,374.442 621.741,376.275 622.5,380C 621.962,386.2 618.795,390.367 613,392.5C 611.739,392.241 610.739,391.574 610,390.5C 608.738,384.038 610.572,378.705 615.5,374.5 Z"/></g>
<g><path style="opacity:0.758" fill="#000000" d="M 761.5,360.5 C 762.833,360.5 764.167,360.5 765.5,360.5C 763.529,371.858 761.362,383.191 759,394.5C 757.989,395.337 756.822,395.67 755.5,395.5C 757.242,383.792 759.242,372.125 761.5,360.5 Z"/></g>
<g><path style="opacity:0.779" fill="#000000" d="M 811.5,360.5 C 812.978,360.238 814.311,360.571 815.5,361.5C 812.654,372.728 810.321,384.062 808.5,395.5C 806.549,395.773 805.049,395.107 804,393.5C 800.744,395.429 797.244,395.929 793.5,395C 789.015,387.051 790.015,379.718 796.5,373C 800.748,371.236 805.081,371.069 809.5,372.5C 809.782,368.426 810.448,364.426 811.5,360.5 Z M 800.5,374.5 C 804.407,374.442 806.741,376.275 807.5,380C 806.962,386.2 803.795,390.367 798,392.5C 796.739,392.241 795.739,391.574 795,390.5C 793.738,384.038 795.572,378.705 800.5,374.5 Z"/></g>
<g><path style="opacity:0.726" fill="#000000" d="M 380.5,362.5 C 382.167,362.5 383.833,362.5 385.5,362.5C 385.616,365.91 383.95,367.244 380.5,366.5C 380.5,365.167 380.5,363.833 380.5,362.5 Z"/></g>
<g><path style="opacity:0.726" fill="#000000" d="M 408.5,362.5 C 410.167,362.5 411.833,362.5 413.5,362.5C 413.616,365.91 411.95,367.244 408.5,366.5C 408.5,365.167 408.5,363.833 408.5,362.5 Z"/></g>
<g><path style="opacity:0.726" fill="#000000" d="M 575.5,362.5 C 577.167,362.5 578.833,362.5 580.5,362.5C 580.616,365.91 578.95,367.244 575.5,366.5C 575.5,365.167 575.5,363.833 575.5,362.5 Z"/></g>
<g><path style="opacity:0.77" fill="#000000" d="M 296.5,363.5 C 297.833,363.5 299.167,363.5 300.5,363.5C 298.628,374.192 296.628,384.858 294.5,395.5C 293.167,395.5 291.833,395.5 290.5,395.5C 292.628,384.858 294.628,374.192 296.5,363.5 Z"/></g>
<g><path style="opacity:0.786" fill="#000000" d="M 492.5,363.5 C 494.167,363.5 495.833,363.5 497.5,363.5C 498.95,374.202 500.617,384.869 502.5,395.5C 501.167,395.5 499.833,395.5 498.5,395.5C 498.037,392.518 497.704,389.518 497.5,386.5C 492.786,386.173 488.12,386.507 483.5,387.5C 481.914,389.67 480.58,392.004 479.5,394.5C 477.926,395.631 476.259,395.798 474.5,395C 480.638,384.554 486.638,374.054 492.5,363.5 Z M 493.5,368.5 C 495.022,373.273 496.022,378.273 496.5,383.5C 492.818,383.665 489.152,383.499 485.5,383C 488.572,378.353 491.238,373.52 493.5,368.5 Z"/></g>
<g><path style="opacity:0.742" fill="#000000" d="M 649.5,363.5 C 650.833,363.5 652.167,363.5 653.5,363.5C 652.663,367.834 652.163,372.168 652,376.5C 656.462,371.194 661.629,366.861 667.5,363.5C 668.167,363.833 668.833,364.167 669.5,364.5C 664.375,369.124 659.375,373.957 654.5,379C 657.833,384.333 661.167,389.667 664.5,395C 662.741,395.798 661.074,395.631 659.5,394.5C 656.468,389.965 653.635,385.298 651,380.5C 649.388,385.391 648.222,390.391 647.5,395.5C 646.167,395.5 644.833,395.5 643.5,395.5C 645.628,384.858 647.628,374.192 649.5,363.5 Z"/></g>
<g><path style="opacity:0.773" fill="#000000" d="M 307.5,371.5 C 308.873,371.343 310.207,371.51 311.5,372C 310.549,372.718 310.383,373.551 311,374.5C 315.145,371.021 319.478,370.688 324,373.5C 324.279,380.944 323.446,388.277 321.5,395.5C 320.167,395.5 318.833,395.5 317.5,395.5C 319.185,388.915 320.019,382.249 320,375.5C 316.209,374.553 313.209,375.886 311,379.5C 309.036,384.317 307.702,389.317 307,394.5C 305.989,395.337 304.822,395.67 303.5,395.5C 304.446,387.435 305.78,379.435 307.5,371.5 Z"/></g>
<g><path style="opacity:0.775" fill="#000000" d="M 335.5,371.5 C 338.518,371.335 341.518,371.502 344.5,372C 347.079,373.612 347.079,375.112 344.5,376.5C 340.536,373.496 337.536,374.163 335.5,378.5C 338.162,380.932 340.995,383.265 344,385.5C 344.831,392.504 341.664,395.838 334.5,395.5C 330.142,396.459 327.809,394.792 327.5,390.5C 329.905,390.866 332.238,391.533 334.5,392.5C 336.841,392.338 338.675,391.338 340,389.5C 340.749,388.365 340.583,387.365 339.5,386.5C 336.914,384.957 334.414,383.291 332,381.5C 330.756,377.191 331.923,373.858 335.5,371.5 Z"/></g>
<g><path style="opacity:0.769" fill="#000000" d="M 353.5,371.5 C 354.873,371.343 356.207,371.51 357.5,372C 356.549,372.718 356.383,373.551 357,374.5C 360.338,371.682 364.171,370.849 368.5,372C 372.842,379.92 371.842,387.253 365.5,394C 361.252,395.764 356.919,395.931 352.5,394.5C 352.167,397.833 351.833,401.167 351.5,404.5C 350.167,404.5 348.833,404.5 347.5,404.5C 349.243,393.453 351.243,382.453 353.5,371.5 Z M 362.5,374.5 C 364.39,374.297 365.89,374.963 367,376.5C 368.424,383.75 365.924,389.083 359.5,392.5C 356.65,391.927 354.984,390.26 354.5,387.5C 354.904,381.678 357.571,377.344 362.5,374.5 Z"/></g>
<g><path style="opacity:0.753" fill="#000000" d="M 379.5,371.5 C 380.833,371.5 382.167,371.5 383.5,371.5C 382.067,379.166 380.567,386.833 379,394.5C 377.612,395.554 376.112,395.72 374.5,395C 376.482,387.258 378.149,379.425 379.5,371.5 Z"/></g>
<g><path style="opacity:0.769" fill="#000000" d="M 390.5,371.5 C 391.873,371.343 393.207,371.51 394.5,372C 393.549,372.718 393.383,373.551 394,374.5C 396.546,371.814 399.713,370.814 403.5,371.5C 403.466,375.176 401.799,376.343 398.5,375C 392.969,380.241 390.135,386.741 390,394.5C 388.612,395.554 387.112,395.72 385.5,395C 387.482,387.258 389.149,379.425 390.5,371.5 Z"/></g>
<g><path style="opacity:0.753" fill="#000000" d="M 407.5,371.5 C 408.833,371.5 410.167,371.5 411.5,371.5C 410.067,379.166 408.567,386.833 407,394.5C 405.612,395.554 404.112,395.72 402.5,395C 404.482,387.258 406.149,379.425 407.5,371.5 Z"/></g>
<g><path style="opacity:0.773" fill="#000000" d="M 418.5,371.5 C 419.873,371.343 421.207,371.51 422.5,372C 421.549,372.718 421.383,373.551 422,374.5C 426.145,371.021 430.478,370.688 435,373.5C 435.279,380.944 434.446,388.277 432.5,395.5C 431.167,395.5 429.833,395.5 428.5,395.5C 430.185,388.915 431.019,382.249 431,375.5C 427.209,374.553 424.209,375.886 422,379.5C 420.036,384.317 418.702,389.317 418,394.5C 416.989,395.337 415.822,395.67 414.5,395.5C 415.446,387.435 416.78,379.435 418.5,371.5 Z"/></g>
<g><path style="opacity:0.785" fill="#000000" d="M 448.5,371.5 C 453.242,372.019 457.909,372.019 462.5,371.5C 461.314,381.284 459.48,390.951 457,400.5C 452.909,404.305 448.076,405.472 442.5,404C 438.868,402.627 438.701,401.127 442,399.5C 446.791,402.673 450.791,402.006 454,397.5C 454.667,396.167 454.667,394.833 454,393.5C 449.335,396.456 445.002,396.122 441,392.5C 439.273,383.84 441.773,376.84 448.5,371.5 Z M 450.5,374.5 C 454.155,374.481 456.488,376.147 457.5,379.5C 457.195,385.966 454.028,390.299 448,392.5C 446.739,392.241 445.739,391.574 445,390.5C 443.738,384.038 445.572,378.705 450.5,374.5 Z"/></g>
<g><path style="opacity:0.769" fill="#000000" d="M 511.5,371.5 C 512.873,371.343 514.207,371.51 515.5,372C 514.549,372.718 514.383,373.551 515,374.5C 518.338,371.682 522.171,370.849 526.5,372C 530.842,379.92 529.842,387.253 523.5,394C 519.252,395.764 514.919,395.931 510.5,394.5C 510.167,397.833 509.833,401.167 509.5,404.5C 508.167,404.5 506.833,404.5 505.5,404.5C 507.243,393.453 509.243,382.453 511.5,371.5 Z M 520.5,374.5 C 522.39,374.297 523.89,374.963 525,376.5C 526.424,383.75 523.924,389.083 517.5,392.5C 514.65,391.927 512.984,390.26 512.5,387.5C 512.904,381.678 515.571,377.344 520.5,374.5 Z"/></g>
<g><path style="opacity:0.769" fill="#000000" d="M 537.5,371.5 C 538.873,371.343 540.207,371.51 541.5,372C 540.549,372.718 540.383,373.551 541,374.5C 544.338,371.682 548.171,370.849 552.5,372C 556.842,379.92 555.842,387.253 549.5,394C 545.252,395.764 540.919,395.931 536.5,394.5C 536.167,397.833 535.833,401.167 535.5,404.5C 534.167,404.5 532.833,404.5 531.5,404.5C 533.243,393.453 535.243,382.453 537.5,371.5 Z M 546.5,374.5 C 548.39,374.297 549.89,374.963 551,376.5C 552.424,383.75 549.924,389.083 543.5,392.5C 540.65,391.927 538.984,390.26 538.5,387.5C 538.904,381.678 541.571,377.344 546.5,374.5 Z"/></g>
<g><path style="opacity:0.753" fill="#000000" d="M 574.5,371.5 C 575.833,371.5 577.167,371.5 578.5,371.5C 577.067,379.166 575.567,386.833 574,394.5C 572.612,395.554 571.112,395.72 569.5,395C 571.482,387.258 573.149,379.425 574.5,371.5 Z"/></g>
<g><path style="opacity:0.808" fill="#000000" d="M 590.5,371.5 C 593.518,371.335 596.518,371.502 599.5,372C 604.186,377.868 602.852,381.868 595.5,384C 592.183,384.498 588.85,384.665 585.5,384.5C 585.244,386.792 585.577,388.959 586.5,391C 590.445,392.104 594.445,392.604 598.5,392.5C 596.728,395.008 594.228,396.008 591,395.5C 586.972,396.222 583.972,394.889 582,391.5C 580.305,382.713 583.138,376.046 590.5,371.5 Z M 592.5,374.5 C 600.482,376.404 600.482,378.57 592.5,381C 590.421,381.808 588.421,381.641 586.5,380.5C 588.215,378.118 590.215,376.118 592.5,374.5 Z"/></g>
<g><path style="opacity:0.773" fill="#000000" d="M 672.5,371.5 C 673.873,371.343 675.207,371.51 676.5,372C 675.549,372.718 675.383,373.551 676,374.5C 680.145,371.021 684.478,370.688 689,373.5C 689.279,380.944 688.446,388.277 686.5,395.5C 685.167,395.5 683.833,395.5 682.5,395.5C 684.185,388.915 685.019,382.249 685,375.5C 681.209,374.553 678.209,375.886 676,379.5C 674.036,384.317 672.702,389.317 672,394.5C 670.989,395.337 669.822,395.67 668.5,395.5C 669.446,387.435 670.78,379.435 672.5,371.5 Z"/></g>
<g><path style="opacity:0.781" fill="#000000" d="M 701.5,371.5 C 714.48,369.766 718.647,375.1 714,387.5C 710.628,394.433 705.128,396.933 697.5,395C 695.667,394.5 694.5,393.333 694,391.5C 692.097,383.026 694.597,376.359 701.5,371.5 Z M 704.5,374.5 C 709.248,374.081 711.581,376.248 711.5,381C 711.241,387.035 708.241,390.868 702.5,392.5C 700.813,392.24 699.313,391.573 698,390.5C 696.084,383.351 698.25,378.018 704.5,374.5 Z"/></g>
<g><path style="opacity:0.762" fill="#000000" d="M 720.5,371.5 C 721.833,371.5 723.167,371.5 724.5,371.5C 725.223,377.502 726.056,383.502 727,389.5C 729.86,383.919 732.526,378.252 735,372.5C 736.356,371.62 737.856,371.286 739.5,371.5C 739.735,377.849 740.235,384.183 741,390.5C 744.636,384.894 747.47,378.894 749.5,372.5C 750.833,371.167 752.167,371.167 753.5,372.5C 750.802,380.229 747.302,387.562 743,394.5C 741.301,395.406 739.467,395.739 737.5,395.5C 737.133,389.828 736.633,384.161 736,378.5C 733.597,383.876 731.097,389.209 728.5,394.5C 726.955,395.452 725.288,395.785 723.5,395.5C 722.662,387.464 721.662,379.464 720.5,371.5 Z"/></g>
<g><path style="opacity:0.808" fill="#000000" d="M 775.5,371.5 C 778.518,371.335 781.518,371.502 784.5,372C 789.186,377.868 787.852,381.868 780.5,384C 777.183,384.498 773.85,384.665 770.5,384.5C 770.244,386.792 770.577,388.959 771.5,391C 775.445,392.104 779.445,392.604 783.5,392.5C 781.728,395.008 779.228,396.008 776,395.5C 771.972,396.222 768.972,394.889 767,391.5C 765.305,382.713 768.138,376.046 775.5,371.5 Z M 777.5,374.5 C 785.482,376.404 785.482,378.57 777.5,381C 775.421,381.808 773.421,381.641 771.5,380.5C 773.215,378.118 775.215,376.118 777.5,374.5 Z"/></g>
<g><path style="opacity:0.785" fill="#000000" d="M 824.5,371.5 C 829.242,372.019 833.909,372.019 838.5,371.5C 837.314,381.284 835.48,390.951 833,400.5C 828.909,404.305 824.076,405.472 818.5,404C 814.868,402.627 814.701,401.127 818,399.5C 822.791,402.673 826.791,402.006 830,397.5C 830.667,396.167 830.667,394.833 830,393.5C 825.335,396.456 821.002,396.122 817,392.5C 815.273,383.84 817.773,376.84 824.5,371.5 Z M 826.5,374.5 C 830.155,374.481 832.488,376.147 833.5,379.5C 833.195,385.966 830.028,390.299 824,392.5C 822.739,392.241 821.739,391.574 821,390.5C 819.738,384.038 821.572,378.705 826.5,374.5 Z"/></g>
<g><path style="opacity:0.808" fill="#000000" d="M 851.5,371.5 C 854.518,371.335 857.518,371.502 860.5,372C 865.186,377.868 863.852,381.868 856.5,384C 853.183,384.498 849.85,384.665 846.5,384.5C 846.244,386.792 846.577,388.959 847.5,391C 851.445,392.104 855.445,392.604 859.5,392.5C 857.728,395.008 855.228,396.008 852,395.5C 847.972,396.222 844.972,394.889 843,391.5C 841.305,382.713 844.138,376.046 851.5,371.5 Z M 853.5,374.5 C 861.482,376.404 861.482,378.57 853.5,381C 851.421,381.808 849.421,381.641 847.5,380.5C 849.215,378.118 851.215,376.118 853.5,374.5 Z"/></g>
</svg>
